<svg width="428" height="255" viewBox="0 0 428 255" fill="none" xmlns="http://www.w3.org/2000/svg">
  <path opacity="0.2" d="M1 91.3973C283.056 -109.288 240.301 129.661 426.176 72.8118C427.157 74.9984 426.176 255 426.176 255H1C1 255 1.12651 90.304 1 91.3973Z" fill="#20ADDC"/>
  <path opacity="0.4" d="M426.216 42.8328C258.609 -80.8703 187.137 111.332 1.43564 54.9061C0.455447 57.0763 1.43564 255 1.43564 255H426.216C426.216 255 426.089 41.7477 426.216 42.8328Z" fill="#20ADDC"/>
  <path opacity="0.4" d="M428 45.0626C134.543 91.6752 159.263 -22.7484 -0.0116374 11.7358C-0.990496 13.9142 -0.0116374 255 -0.0116374 255H428C428 255 427.874 43.9734 428 45.0626Z" fill="#20ADDC"/>
  <path opacity="0.2" d="M1 97.5101C283.056 -95.6772 240.301 134.344 426.176 79.6191C427.157 81.7239 426.176 255 426.176 255H1C1 255 1.12651 96.4576 1 97.5101Z" fill="#20ADDC"/>
  <path opacity="0.4" d="M426.216 50.4758C258.609 -68.7711 187.137 116.507 1.43564 62.1142C0.455447 64.2062 1.43564 255 1.43564 255H426.216C426.216 255 426.089 49.4298 426.216 50.4758Z" fill="#20ADDC"/>
  <path opacity="0.4" d="M426.216 50.4758C258.609 -68.7711 187.137 116.507 1.43564 62.1142C0.455447 64.2062 1.43564 255 1.43564 255H426.216C426.216 255 426.089 49.4298 426.216 50.4758Z" fill="#20ADDC"/>
  <path opacity="0.4" d="M428 47.9687C134.543 93.936 159.263 19.9374 -0.0116374 53.9442C-0.990496 56.0925 -0.0116374 255 -0.0116374 255H428C428 255 427.874 46.8945 428 47.9687Z" fill="#20ADDC"/>
  <path opacity="0.19" d="M0 2.58076C183.782 -19.7013 95.5045 144.349 425.176 2.58076C426.157 4.66104 425.176 255 425.176 255H0C0 255 0.12651 1.5406 0 2.58076Z" fill="#20ADDC"/>
  <rect y="125" width="426" height="130" fill="#20ADDC"/>
</svg>
